Coordinates
version=1
nRows=19
nColumns=34
inDegrees=yes

Units are S.I. units (second, meters, Newtons, ...)
If the header above contains a line with 'inDegrees', this indicates whether rotational values are in degrees (yes) or radians (no).

endheader
time	pelvis_tilt	pelvis_list	pelvis_rotation	pelvis_tx	pelvis_ty	pelvis_tz	hip_flexion_r	hip_adduction_r	hip_rotation_r	knee_angle_r	ankle_angle_r	subtalar_angle_r	mtp_angle_r	hip_flexion_l	hip_adduction_l	hip_rotation_l	knee_angle_l	ankle_angle_l	subtalar_angle_l	mtp_angle_l	lumbar_extension	lumbar_bending	lumbar_rotation	arm_flex_r	arm_add_r	arm_rot_r	elbow_flex_r	pro_sup_r	arm_flex_l	arm_add_l	arm_rot_l	elbow_flex_l	pro_sup_l
      2.43000000	      0.94643053	     -2.93472877	     -1.70345522	     -0.13873600	      0.89750175	     -0.16752982	    -20.56563249	      7.79179207	     -1.65975962	     -9.25116828	     12.14055043	      8.40333767	      4.67657211	     25.91661644	      0.83819419	     -5.41622319	     -9.50762986	      1.33800269	      4.96527500	     14.50430381	     -7.86360578	      5.53497023	      3.47682777	     -1.57087893	    -22.44310408	      2.93092966	     39.58685684	     90.00000000	     -7.25292816	    -13.15064828	     13.53073716	     12.85823738	     90.00000000
      2.44000000	      0.96622399	     -2.80539688	     -1.85354014	     -0.12351945	      0.89614218	     -0.16686570	    -20.84626961	      7.43376588	     -1.55835180	    -10.52506294	     11.46254435	      8.94670152	      5.02991944	     25.90098417	      1.10036052	     -5.12214717	    -11.30654502	      1.47224382	      4.50218395	     14.33161386	     -7.61458515	      5.19489945	      3.37613491	     -1.91661037	    -22.32572069	      2.77314284	     39.72684601	     90.00000000	     -7.69343156	    -13.30895036	     13.63735664	     12.90176684	     90.00000000
      2.45000000	      0.94288517	     -2.40578236	     -1.76679228	     -0.10793214	      0.89485322	     -0.16683447	    -20.80177634	      6.78611097	     -2.35173607	    -12.31548599	     10.77487684	     10.55543842	      7.43978584	     25.53985632	      1.82711515	     -4.09586950	    -12.30518052	     -0.70990716	      3.04649323	     12.48434880	     -7.21604979	      4.62573492	      3.13837521	     -2.52166138	    -22.05820042	      2.32570748	     39.82869968	     90.00000000	     -7.87886040	    -13.38083251	     14.69637436	     12.35186061	     90.00000000
      2.46000000	      0.76055510	     -1.92488932	     -1.79234925	     -0.09265843	      0.89390142	     -0.16609381	    -20.58222025	      6.16162865	     -2.30497156	    -14.01078504	      9.84528134	     10.74636310	      8.14885393	     25.33213187	      2.42357837	     -3.92584445	    -12.61431032	     -4.63650314	      1.65827888	     11.20024292	     -6.69331227	      3.86496577	      2.91399536	     -2.86893484	    -21.66312946	      2.08869080	     39.46886413	     90.00000000	     -8.05611628	    -13.49803816	     14.60949980	     11.87315389	     90.00000000
      2.47000000	      0.70542220	     -1.66430576	     -1.71980397	     -0.07757314	      0.89334429	     -0.16560971	    -20.30864908	      5.77324596	     -2.22502613	    -15.95086332	      8.34262711	     10.93949324	      8.32604708	     25.29984888	      2.77381173	     -3.56993656	    -13.71717745	     -5.05362405	      0.67261290	     11.11423264	     -6.36945584	      3.38378497	      2.42485005	     -3.13676973	    -21.35094889	      1.96241936	     39.39913072	     90.00000000	     -8.46591639	    -13.67586230	     14.62043195	     12.07078575	     90.00000000
      2.48000000	      0.22740193	     -1.10977720	     -1.28421787	     -0.06263766	      0.89257011	     -0.16615756	    -19.40789773	      5.19170442	     -2.51580631	    -18.01849441	      5.67040962	     10.88778234	     16.23798371	     25.82242524	      3.70178478	     -1.81519306	    -15.31248503	     -6.66061853	     -3.09149452	     11.35945459	     -5.48135534	      2.66032337	      1.73550940	     -3.45647363	    -20.95405002	      1.83238243	     38.51268813	     90.00000000	     -8.39512157	    -13.75982292	     16.31316548	     11.15514185	     90.00000000
      2.49000000	     -0.15868349	     -0.66729726	     -0.95053400	     -0.04794498	      0.89234007	     -0.16605378	    -18.31421285	      4.70849226	     -2.71126839	    -20.58562504	      3.69498752	     10.88321498	     16.68281853	     26.45914113	      4.28853207	     -1.08839819	    -17.48641689	     -6.96652074	     -4.69217967	     11.26530017	     -4.79207114	      1.97473730	      1.03054516	     -3.72152308	    -20.43095556	      1.57409074	     37.83031358	     90.00000000	     -8.53577469	    -13.83455550	     16.07017755	     10.89707691	     90.00000000
      2.50000000	     -0.48671909	     -0.00915024	     -0.63026696	     -0.03321572	      0.89240091	     -0.16613676	    -17.02862019	      3.92224839	     -3.15861665	    -23.47019729	      1.29761488	     11.11792456	     18.34153230	     26.73420811	      5.12504761	     -0.44203084	    -18.92019617	     -7.70847148	     -6.36895756	     11.16879266	     -4.15460588	      1.07647186	      0.36814219	     -4.01301604	    -20.01826795	      1.42032751	     37.04022155	     90.00000000	     -8.71154616	    -14.09962553	     16.48473126	     10.86587541	     90.00000000
      2.51000000	     -0.47090008	      0.66720035	     -0.36204086	     -0.01834944	      0.89321730	     -0.16597364	    -16.00649226	      3.09669313	     -3.54637622	    -26.23711730	     -3.40950622	     10.47667936	     28.04446454	     26.44125751	      5.93121750	     -0.05292958	    -19.99912604	     -7.81636945	     -6.66157222	     11.09474742	     -3.92477217	      0.14553614	     -0.04868211	     -4.59799329	    -19.52261519	      1.02612555	     36.68732179	     90.00000000	     -8.59145645	    -14.34793375	     17.70665564	     10.61319727	     90.00000000
      2.52000000	     -0.61009448	      1.44368249	     -0.17594508	     -0.00370876	      0.89390529	     -0.16591874	    -14.52206106	      2.01185509	     -4.08203482	    -29.42193108	     -7.53808114	     10.42565530	     32.91128004	     26.23253473	      6.87576241	      0.30532459	    -21.14605590	     -6.78406412	     -6.50875991	     10.37283876	     -3.56568068	     -0.86506883	     -0.44779921	     -5.12066554	    -19.06313156	      0.67199878	     36.22174493	     90.00000000	     -8.60012485	    -14.58534668	     17.55865834	     10.77754769	     90.00000000
      2.53000000	     -0.53716260	      2.13253778	     -0.09705767	      0.01059244	      0.89504164	     -0.16565561	    -13.14216675	      1.04377026	     -4.10768516	    -32.66623737	    -11.01478169	     10.16774370	     32.72917912	     25.69194509	      7.68321260	      0.52614311	    -22.14772392	     -5.65040756	     -6.41282755	     10.40505538	     -3.53858597	     -1.77506801	     -0.65065099	     -5.67058667	    -18.66027330	      0.41795089	     35.83817860	     90.00000000	     -8.47556917	    -14.86513275	     17.32437569	     11.11518771	     90.00000000
      2.54000000	     -0.54109410	      2.84387941	     -0.11824728	      0.02444802	      0.89608753	     -0.16513769	    -11.42123636	      0.07710320	     -3.93232672	    -36.21545366	    -13.87192458	      9.77479825	     32.63618004	     25.03010507	      8.45353918	      0.74122950	    -22.67769797	     -4.57924366	     -6.69125108	     10.38218219	     -3.47175807	     -2.70896113	     -0.79833336	     -6.10463245	    -18.20628403	      0.10044138	     35.30362271	     90.00000000	     -8.30450803	    -15.14715897	     17.15491194	     11.46216833	     90.00000000
      2.55000000	     -0.64639531	      3.59236650	     -0.24854729	      0.03787561	      0.89702815	     -0.16469129	     -9.35170670	     -0.93046016	     -3.56566816	    -39.97613190	    -16.55676243	      8.93158655	     32.24939856	     24.39413291	      9.20410679	      0.68178700	    -23.01755883	     -3.45843811	     -6.70919233	     10.40356501	     -3.34261238	     -3.64665741	     -0.82798076	     -6.51601454	    -17.85302481	     -0.10208317	     34.84385346	     90.00000000	     -8.06889170	    -15.39753063	     16.99186526	     11.88759545	     90.00000000
      2.56000000	     -0.99813118	      4.30969826	     -0.44822663	      0.05077779	      0.89757807	     -0.16399690	     -6.78285941	     -1.85676426	     -3.04920332	    -43.93217675	    -18.60998363	      6.61389078	     31.37672144	     24.01627344	      9.82976995	      0.33790074	    -23.25738748	     -2.63741155	     -6.33644616	     10.17686475	     -2.95415030	     -4.56265142	     -0.80782146	     -6.78294155	    -17.42773756	     -0.35445384	     33.98124136	     90.00000000	     -7.75809773	    -15.64569596	     16.83587810	     12.12971979	     90.00000000
      2.57000000	     -1.11232348	      4.93470582	     -0.70454135	      0.06346687	      0.89840828	     -0.16338275	     -4.40011500	     -2.72702678	     -2.54816820	    -47.68748380	    -19.44550584	      3.81477409	     31.15194442	     23.31729100	     10.34409183	     -0.07686199	    -23.38015483	     -1.44886276	     -5.95961667	     10.12439253	     -2.87488073	     -5.32884793	     -0.81683640	     -7.04800201	    -17.19440796	     -0.30667005	     33.49268989	     90.00000000	     -7.50297713	    -15.85510162	     16.73977243	     12.78729891	     90.00000000
      2.58000000	     -1.44216542	      5.17269352	     -0.96298211	      0.07583349	      0.89904294	     -0.16228077	     -1.75878894	     -2.95413949	     -1.80695026	    -51.20435052	    -19.52731931	      0.14839911	     31.07562023	     22.81969689	     10.35525394	     -0.81751723	    -23.41385806	     -0.38553117	     -5.09083372	      9.93105183	     -2.53812673	     -5.69225001	     -0.85018007	     -7.07764355	    -16.92260716	     -0.09175701	     32.44610006	     90.00000000	     -7.21506083	    -16.12242781	     16.70762625	     13.28352001	     90.00000000
      2.59000000	     -1.59437503	      5.31996308	     -1.22377068	      0.08798192	      0.90010614	     -0.16120443	      0.66097692	     -3.09054011	     -1.26180918	    -54.32195352	    -18.90316382	     -2.56744528	     30.67701219	     22.02788832	     10.29409016	     -1.52267928	    -23.23249512	      0.69014875	     -4.14663654	      9.79077403	     -2.44490596	     -5.94588865	     -0.95477508	     -7.04518306	    -16.76600537	      0.43767148	     31.52057051	     90.00000000	     -6.95660348	    -16.36209433	     16.64104564	     14.03145285	     90.00000000
      2.60000000	     -1.74915226	      5.30116575	     -1.53711518	      0.09986106	      0.90128792	     -0.16015646	      3.10334642	     -3.03267955	     -0.72128166	    -57.09378393	    -18.01354168	     -5.20934643	     29.65013853	     21.19301130	     10.05182367	     -2.27114977	    -22.96228977	      1.78114656	     -3.12417650	      9.56934373	     -2.36977225	     -5.97493508	     -1.07733504	     -6.88545821	    -16.73318255	      1.27914065	     30.46368996	     90.00000000	     -6.58218867	    -16.48192416	     16.37744350	     14.53275684	     90.00000000
      2.61000000	     -1.78506930	      5.44810122	     -1.90079353	      0.11176022	      0.90280056	     -0.15935333	      5.39505901	     -3.24658287	     -0.23108616	    -59.45889472	    -16.85750104	     -7.07994540	     29.32357977	     20.14037200	     10.03775067	     -3.02284493	    -22.46824420	      2.52925851	     -2.57296512	      9.56257061	     -2.42462398	     -6.13751800	     -1.10878169	     -6.94911318	    -16.67712281	      1.52562019	     29.87669469	     90.00000000	     -6.14183826	    -16.56424274	     16.14129731	     15.06583878	     90.00000000
